<svg xmlns="http://www.w3.org/2000/svg" width="655.36" height="655.36" viewBox="0 0 491.52 491.52"><path d="m84.78 248.283 7.35 12.73c-.019.035-.024.06-.016.076.205.4.512.966.92 1.696l-14.34-24.84c1.509 1.75 2.76 2.991 3.75 3.726 1.76 1.306 3.401 2.302 5.445 3.096 2.362.918 4.505 1.497 7.027 1.75 2.443.244 4.59.097 7.004-.345 2.241-.411 4.12-1.08 6.171-2.071 2.096-1.014 3.848-2.062 5.583-3.614 4.63-4.141 8.048-8.267 12.519-12.58 3.079-2.97 5.7-5.554 9.045-8.22 1.144-.912 2.36-1.358 3.703-1.94 1.345-.582 2.523-1.064 3.955-1.377 3.228-.708 6.03-1.187 9.318-1.531a19.994 19.994 0 0 1 4.779.054c3.158.395 5.975.508 8.94 1.664 3.305 1.29 5.877 3.054 8.691 5.214 4.177 3.206 7.11 6.728 11.195 10.05 3.685 2.996 6.82 5.678 10.975 7.976 3.595 1.988 7.03 3.016 10.973 4.165 2.706.79 5.128 1.14 7.94 1.348 2.156.16 4.043.086 6.17-.305 2.888-.531 5.281-1.379 8.066-2.313 1.39-.466 2.54-.998 3.837-1.681 1.331-.7 2.41-1.417 3.655-2.262 2.664-1.808 4.865-3.478 7.51-5.314 1.372-.953 2.493-1.867 3.967-2.654 3.532-1.884 6.634-3.364 10.305-4.961 1.417-.617 2.711-.949 4.203-1.351 1.532-.413 2.852-.787 4.428-.975 2.327-.277 4.346-.458 6.687-.348 1.546.072 2.898.294 4.337.864 3.04 1.202 5.578 2.442 8.36 4.158 2.111 1.302 3.638 2.828 5.542 4.418 3.91 3.263 6.867 6.564 11.065 9.446 2.936 2.015 5.886 3.03 9.158 4.436a32.48 32.48 0 0 0 5.242 1.753c5.345 1.325 9.933 2.492 15.371 3.36 4.074.65 7.624.82 11.747.968 1.17.043 2.178-.157 3.317-.423a41.937 41.937 0 0 0 5.368-1.61c1.395-.52 2.53-1.122 3.841-1.828.876-.473 1.57-.977 2.394-1.534 1.21-.817 2.311-1.44 3.418-2.393 5.163-4.436 9.42-8.431 14.478-12.986.601-.54 1.1-1.022 1.693-1.571.524-.485.968-.904 1.498-1.382.466-.422.883-.764 1.347-1.189.405-.37.745-.697 1.135-1.084.392-.39.712-.738 1.1-1.133.622-.635 1.154-1.181 1.784-1.81.35-.348.647-.649 1.012-.98.372-.338.703-.613 1.093-.93.417-.338.788-.611 1.212-.941.712-.553 1.302-1.053 2.032-1.58.56-.404 1.072-.7 1.647-1.079.351-.232.64-.45 1-.669.378-.23.717-.405 1.11-.613.428-.228.792-.43 1.232-.631.812-.372 1.485-.76 2.343-1.008.917-.265 1.745-.312 2.69-.445.445-.063.83-.097 1.278-.116.778-.033 1.891-.06 3.337-.08l14.552 25.205c-1.432.053-2.533.1-3.304.137-.453.023-.843.028-1.293.09-.942.132-1.758.223-2.679.464-.872.228-1.589.529-2.423.87-.449.182-.812.388-1.236.623-.388.216-.708.424-1.082.665-.353.228-.636.454-.995.674-.588.358-1.135.593-1.706.976-.747.5-1.345.99-2.054 1.543-.426.332-.779.631-1.188.984-.382.33-.695.63-1.072.965-.364.324-.695.582-1.047.92-.642.614-1.172 1.162-1.79 1.8-.388.398-.689.769-1.085 1.158-.389.384-.739.696-1.155 1.05-.476.403-.913.713-1.392 1.111-.544.453-.992.864-1.532 1.322-.61.517-1.157.933-1.756 1.463-5.095 4.506-9.347 8.5-14.514 12.923-1.11.95-2.194 1.6-3.406 2.415-.825.556-1.54 1.024-2.412 1.503-1.302.716-2.395 1.405-3.794 1.908-1.863.67-3.536 1.021-5.474 1.426-1.148.24-2.153.461-3.324.41-4.143-.177-7.718-.336-11.8-1.06-5.543-.983-10.189-2.347-15.627-3.802a41.094 41.094 0 0 1-5.262-1.788c-3.178-1.308-6.099-2.128-8.942-4.06-4.258-2.894-7.208-6.285-11.15-9.596-1.903-1.598-3.432-3.127-5.549-4.428-2.765-1.698-5.298-2.909-8.32-4.09-1.44-.563-2.789-.778-4.333-.855-2.349-.118-4.378.026-6.714.3-1.572.185-2.883.587-4.409 1.007-1.489.41-2.776.757-4.196 1.364-3.685 1.573-6.823 2.986-10.368 4.853-1.479.778-2.586 1.717-3.949 2.684-2.63 1.865-4.808 3.569-7.457 5.407-1.236.858-2.31 1.582-3.636 2.293-1.29.693-2.433 1.24-3.82 1.71-2.783.942-5.178 1.782-8.067 2.314-2.126.392-4.013.474-6.168.308-2.824-.218-5.259-.576-7.969-1.398-3.999-1.214-7.466-2.333-11.103-4.391-4.194-2.375-7.35-5.125-11.087-8.17-4.046-3.297-6.964-6.78-11.126-9.93-2.756-2.086-5.314-3.72-8.542-4.956-2.995-1.147-5.814-1.34-8.994-1.758-1.658-.217-3.116-.243-4.777-.05-3.263.378-6.035.928-9.233 1.676-1.426.333-2.599.818-3.94 1.404-1.341.586-2.53 1.066-3.705 1.937-3.406 2.526-6.261 4.802-9.33 7.728-4.521 4.314-7.759 8.652-12.319 12.926a21.101 21.101 0 0 1-5.493 3.768c-2.065.996-4.013 1.489-6.268 1.902-2.384.438-4.489.686-6.906.515-2.458-.174-4.575-.619-6.879-1.492-2.084-.79-3.704-1.886-5.505-3.2-.934-.681-2.126-1.823-3.578-3.426l-14.34-24.84c-.551-.976-.967-1.731-1.25-2.265a.252.252 0 0 1-.014-.127l7.35 12.73Z"/></svg>